<svg width="131" height="131" viewBox="0 0 131 131" fill="none" xmlns="http://www.w3.org/2000/svg">
<path d="M0 102.531L84.8528 17.6782L98.9949 31.8204L14.1421 116.673L0 102.531Z" fill="#F6590A"/>
<path d="M0 102.531L84.8528 17.6782L98.9949 31.8204L14.1421 116.673L0 102.531Z" fill="#F6590A"/>
<path d="M0 102.531L84.8528 17.6782L98.9949 31.8204L14.1421 116.673L0 102.531Z" fill="#F6590A"/>
<path d="M0 102.531L84.8528 17.6782L98.9949 31.8204L14.1421 116.673L0 102.531Z" fill="#F6590A"/>
<path d="M31.8204 98.995L116.673 14.1422L130.815 28.2844L45.9626 113.137L31.8204 98.995Z" fill="#F23405"/>
<path d="M31.8204 98.995L116.673 14.1422L130.815 28.2844L45.9626 113.137L31.8204 98.995Z" fill="#F23405"/>
<path d="M31.8204 98.995L116.673 14.1422L130.815 28.2844L45.9626 113.137L31.8204 98.995Z" fill="#F23405"/>
<path d="M31.8204 98.995L116.673 14.1422L130.815 28.2844L45.9626 113.137L31.8204 98.995Z" fill="#F23405"/>
</svg>
