<svg width="205" height="38" viewBox="0 0 205 38" fill="none" xmlns="http://www.w3.org/2000/svg">
<path d="M33.1136 19.5455C33.1136 23.3523 32.392 26.5909 30.9489 29.2614C29.517 31.9318 27.5625 33.9716 25.0852 35.3807C22.6193 36.7784 19.8466 37.4773 16.767 37.4773C13.6648 37.4773 10.8807 36.7727 8.41477 35.3636C5.94886 33.9545 4 31.9148 2.56818 29.2443C1.13636 26.5739 0.420455 23.3409 0.420455 19.5455C0.420455 15.7386 1.13636 12.5 2.56818 9.82955C4 7.15909 5.94886 5.125 8.41477 3.72727C10.8807 2.31818 13.6648 1.61364 16.767 1.61364C19.8466 1.61364 22.6193 2.31818 25.0852 3.72727C27.5625 5.125 29.517 7.15909 30.9489 9.82955C32.392 12.5 33.1136 15.7386 33.1136 19.5455ZM25.6307 19.5455C25.6307 17.0795 25.2614 15 24.5227 13.3068C23.7955 11.6136 22.767 10.3295 21.4375 9.45455C20.108 8.57955 18.5511 8.14205 16.767 8.14205C14.983 8.14205 13.4261 8.57955 12.0966 9.45455C10.767 10.3295 9.73295 11.6136 8.99432 13.3068C8.26705 15 7.90341 17.0795 7.90341 19.5455C7.90341 22.0114 8.26705 24.0909 8.99432 25.7841C9.73295 27.4773 10.767 28.7614 12.0966 29.6364C13.4261 30.5114 14.983 30.9489 16.767 30.9489C18.5511 30.9489 20.108 30.5114 21.4375 29.6364C22.767 28.7614 23.7955 27.4773 24.5227 25.7841C25.2614 24.0909 25.6307 22.0114 25.6307 19.5455ZM46.0094 37L38.8844 10.8182H46.231L50.2878 28.4091H50.5264L54.7537 10.8182H61.9639L66.2594 28.3068H66.481L70.4696 10.8182H77.7991L70.6912 37H63.0037L58.5037 20.5341H58.1798L53.6798 37H46.0094ZM91.3341 2.09091V37H84.0727V2.09091H91.3341ZM99.5508 37V10.8182H106.812V37H99.5508ZM103.199 7.44318C102.119 7.44318 101.193 7.08523 100.42 6.36932C99.6588 5.64204 99.2781 4.77273 99.2781 3.76136C99.2781 2.76136 99.6588 1.90341 100.42 1.1875C101.193 0.460226 102.119 0.0965891 103.199 0.0965891C104.278 0.0965891 105.199 0.460226 105.96 1.1875C106.733 1.90341 107.119 2.76136 107.119 3.76136C107.119 4.77273 106.733 5.64204 105.96 6.36932C105.199 7.08523 104.278 7.44318 103.199 7.44318ZM136.813 18.2841L130.165 18.6932C130.052 18.125 129.807 17.6136 129.432 17.1591C129.057 16.6932 128.563 16.3239 127.949 16.0511C127.347 15.767 126.626 15.625 125.785 15.625C124.66 15.625 123.711 15.8636 122.938 16.3409C122.165 16.8068 121.779 17.4318 121.779 18.2159C121.779 18.8409 122.029 19.3693 122.529 19.8011C123.029 20.233 123.887 20.5795 125.103 20.8409L129.841 21.7955C132.387 22.3182 134.285 23.1591 135.535 24.3182C136.785 25.4773 137.41 27 137.41 28.8864C137.41 30.6023 136.904 32.108 135.893 33.4034C134.893 34.6989 133.518 35.7102 131.768 36.4375C130.029 37.1534 128.023 37.5114 125.751 37.5114C122.285 37.5114 119.523 36.7898 117.466 35.3466C115.421 33.892 114.222 31.9148 113.87 29.4148L121.012 29.0398C121.228 30.0966 121.751 30.9034 122.58 31.4602C123.41 32.0057 124.472 32.2784 125.768 32.2784C127.04 32.2784 128.063 32.0341 128.836 31.5455C129.62 31.0455 130.018 30.4034 130.029 29.6193C130.018 28.9602 129.739 28.4205 129.194 28C128.648 27.5682 127.807 27.2386 126.671 27.0114L122.137 26.108C119.58 25.5966 117.677 24.7102 116.427 23.4489C115.188 22.1875 114.569 20.5795 114.569 18.625C114.569 16.9432 115.023 15.4943 115.932 14.2784C116.853 13.0625 118.143 12.125 119.802 11.4659C121.472 10.8068 123.427 10.4773 125.665 10.4773C128.972 10.4773 131.574 11.1761 133.472 12.5739C135.381 13.9716 136.495 15.875 136.813 18.2841ZM158.308 10.8182V16.2727H142.541V10.8182H158.308ZM146.121 4.54545H153.382V28.9545C153.382 29.625 153.484 30.1477 153.689 30.5227C153.893 30.8864 154.178 31.142 154.541 31.2898C154.916 31.4375 155.348 31.5114 155.837 31.5114C156.178 31.5114 156.518 31.483 156.859 31.4261C157.2 31.358 157.462 31.3068 157.643 31.2727L158.786 36.6761C158.422 36.7898 157.911 36.9205 157.251 37.0682C156.592 37.2273 155.791 37.3239 154.848 37.358C153.098 37.4261 151.564 37.1932 150.246 36.6591C148.939 36.125 147.922 35.2955 147.195 34.1705C146.467 33.0455 146.109 31.625 146.121 29.9091V4.54545ZM165.438 37V10.8182H172.7V37H165.438ZM169.086 7.44318C168.007 7.44318 167.08 7.08523 166.308 6.36932C165.546 5.64204 165.166 4.77273 165.166 3.76136C165.166 2.76136 165.546 1.90341 166.308 1.1875C167.08 0.460226 168.007 0.0965891 169.086 0.0965891C170.166 0.0965891 171.086 0.460226 171.847 1.1875C172.62 1.90341 173.007 2.76136 173.007 3.76136C173.007 4.77273 172.62 5.64204 171.847 6.36932C171.086 7.08523 170.166 7.44318 169.086 7.44318ZM192.746 37.5114C190.064 37.5114 187.757 36.9432 185.826 35.8068C183.905 34.6591 182.428 33.0682 181.394 31.0341C180.371 29 179.86 26.6591 179.86 24.0114C179.86 21.3295 180.377 18.9773 181.411 16.9545C182.456 14.9205 183.939 13.3352 185.86 12.1989C187.78 11.0511 190.064 10.4773 192.712 10.4773C194.996 10.4773 196.996 10.892 198.712 11.7216C200.428 12.5511 201.786 13.7159 202.786 15.2159C203.786 16.7159 204.337 18.4773 204.439 20.5H197.587C197.394 19.1932 196.882 18.142 196.053 17.3466C195.235 16.5398 194.161 16.1364 192.831 16.1364C191.706 16.1364 190.723 16.4432 189.882 17.0568C189.053 17.6591 188.405 18.5398 187.939 19.6989C187.473 20.858 187.24 22.2614 187.24 23.9091C187.24 25.5795 187.468 27 187.922 28.1705C188.388 29.3409 189.041 30.233 189.882 30.8466C190.723 31.4602 191.706 31.767 192.831 31.767C193.661 31.767 194.405 31.5966 195.064 31.2557C195.735 30.9148 196.286 30.4205 196.718 29.7727C197.161 29.1136 197.451 28.3239 197.587 27.4034H204.439C204.326 29.4034 203.78 31.1648 202.803 32.6875C201.837 34.1989 200.502 35.3807 198.797 36.233C197.093 37.0852 195.076 37.5114 192.746 37.5114Z" fill="#141414"/>
</svg>
